<?xml version="1.0" encoding="UTF-8"?>
<!DOCTYPE svg PUBLIC "-//W3C//DTD SVG 1.1//EN" "http://www.w3.org/Graphics/SVG/1.1/DTD/svg11.dtd">
<svg xmlns="http://www.w3.org/2000/svg" version="1.1" width="1532px" height="496px" style="shape-rendering:geometricPrecision; text-rendering:geometricPrecision; image-rendering:optimizeQuality; fill-rule:evenodd; clip-rule:evenodd" xmlns:xlink="http://www.w3.org/1999/xlink">
<g><path style="opacity:0.872" fill="#fefefe" d="M 696.5,-0.5 C 696.833,-0.5 697.167,-0.5 697.5,-0.5C 702.371,0.994477 707.371,2.49448 712.5,4C 714.651,5.40527 716.318,7.2386 717.5,9.5C 717.291,10.086 716.957,10.586 716.5,11C 720.534,13.501 723.867,16.6677 726.5,20.5C 725.927,23.0853 724.261,24.0853 721.5,23.5C 721.528,21.4176 720.861,19.5843 719.5,18C 715.249,17.5557 711.249,16.3891 707.5,14.5C 700.812,12.109 694.145,12.2756 687.5,15C 683.312,19.4511 682.312,24.6178 684.5,30.5C 680.4,30.4757 676.4,29.809 672.5,28.5C 670.823,29.1869 669.156,29.8535 667.5,30.5C 664.682,31.9697 661.682,32.9697 658.5,33.5C 658.211,26.421 661.545,22.0877 668.5,20.5C 670.192,18.6414 671.692,16.6414 673,14.5C 674.183,15.731 675.349,15.731 676.5,14.5C 678.927,11.0299 681.26,7.52993 683.5,4C 687.833,2.181 692.167,0.680998 696.5,-0.5 Z"/></g>
<g><path style="opacity:1" fill="#f1994a" d="M 707.5,14.5 C 714.274,26.2517 718.274,38.9184 719.5,52.5C 721.242,62.7633 721.742,73.0967 721,83.5C 716.687,92.4506 712.687,101.451 709,110.5C 713.871,109.636 717.704,107.136 720.5,103C 721.5,102.333 722.5,102.333 723.5,103C 724.469,107.737 724.803,112.57 724.5,117.5C 724.5,126.833 724.5,136.167 724.5,145.5C 723.527,147.948 723.194,150.615 723.5,153.5C 723.5,156.167 723.5,158.833 723.5,161.5C 722.778,161.918 722.278,162.584 722,163.5C 721.502,166.482 721.335,169.482 721.5,172.5C 720.915,185.591 719.582,198.591 717.5,211.5C 712.88,213.551 708.214,215.717 703.5,218C 702.594,219.699 702.261,221.533 702.5,223.5C 705.802,224.819 708.802,226.652 711.5,229C 713.155,230.444 713.822,232.278 713.5,234.5C 713.25,241.256 712.583,247.922 711.5,254.5C 710.733,255.172 710.066,256.005 709.5,257C 710.171,257.986 710.171,259.153 709.5,260.5C 709.611,261.117 709.944,261.617 710.5,262C 709.155,273.27 707.155,284.103 704.5,294.5C 702.519,295.105 702.185,296.105 703.5,297.5C 702.676,300.764 702.342,304.098 702.5,307.5C 701.094,307.973 700.427,308.973 700.5,310.5C 699.775,316.666 698.442,322.666 696.5,328.5C 694.896,329.287 694.229,330.62 694.5,332.5C 693.537,335.899 692.537,338.899 691.5,341.5C 690.883,341.611 690.383,341.944 690,342.5C 684.354,339.835 678.688,337.168 673,334.5C 672.667,334.833 672.333,335.167 672,335.5C 670.713,332.855 668.547,331.855 665.5,332.5C 664.878,337.032 666.878,339.198 671.5,339C 676.451,342.816 681.785,346.15 687.5,349C 686.748,349.671 686.414,350.504 686.5,351.5C 684.179,355.47 681.846,359.47 679.5,363.5C 678.167,363.5 677.5,364.167 677.5,365.5C 676.488,366.872 675.488,368.205 674.5,369.5C 673.167,369.5 672.5,370.167 672.5,371.5C 672.5,372.167 672.167,372.5 671.5,372.5C 670.5,372.833 669.833,373.5 669.5,374.5C 669.5,376.5 668.5,377.5 666.5,377.5C 665.5,377.833 664.833,378.5 664.5,379.5C 663.373,380.122 662.373,380.955 661.5,382C 647.166,383.305 632.832,383.638 618.5,383C 613.709,385.627 609.709,389.127 606.5,393.5C 605.583,394.127 604.583,394.461 603.5,394.5C 602.768,391.573 602.935,388.573 604,385.5C 611.212,365.687 617.879,345.687 624,325.5C 628.99,305.88 633.657,286.214 638,266.5C 643.297,250.347 647.964,234.014 652,217.5C 661.072,176.024 670.739,134.691 681,93.5C 684.773,81.1883 688.44,68.8549 692,56.5C 692.808,54.4213 692.641,52.4213 691.5,50.5C 690.522,50.9767 689.689,51.6433 689,52.5C 675.012,101.446 662.679,150.779 652,200.5C 646.408,222.61 640.408,244.61 634,266.5C 624.951,309.473 612.784,351.473 597.5,392.5C 595.929,391.691 594.262,391.357 592.5,391.5C 590.046,389.94 587.38,388.94 584.5,388.5C 581.783,384.619 578.283,381.619 574,379.5C 570.967,374.982 567.8,370.649 564.5,366.5C 563.07,366.579 561.736,366.246 560.5,365.5C 557.031,363.299 553.697,360.966 550.5,358.5C 550.573,356.973 549.906,355.973 548.5,355.5C 548.5,355.167 548.5,354.833 548.5,354.5C 548.715,352.821 548.048,351.821 546.5,351.5C 554.227,349.015 561.894,345.848 569.5,342C 560.622,340.833 551.622,339.833 542.5,339C 541.915,337.698 541.249,336.531 540.5,335.5C 540.768,333.901 540.434,332.568 539.5,331.5C 539.5,331.167 539.5,330.833 539.5,330.5C 539.795,328.265 539.461,326.265 538.5,324.5C 538.5,324.167 538.5,323.833 538.5,323.5C 538.676,318.903 538.676,314.237 538.5,309.5C 539.385,305.93 540.385,302.263 541.5,298.5C 552.833,297.833 564.167,297.167 575.5,296.5C 574.975,295.808 574.308,295.308 573.5,295C 564.081,294.312 554.747,292.979 545.5,291C 544.244,290.583 543.577,289.75 543.5,288.5C 543.5,288.167 543.5,287.833 543.5,287.5C 545.109,286.335 545.443,285.001 544.5,283.5C 545.038,281.883 545.371,280.216 545.5,278.5C 546.5,278.167 547.167,277.5 547.5,276.5C 547.833,274.5 548.167,272.5 548.5,270.5C 549.974,269.564 550.974,268.23 551.5,266.5C 551.5,266.167 551.5,265.833 551.5,265.5C 553.594,260.633 555.927,255.633 558.5,250.5C 558.722,247.496 559.722,244.829 561.5,242.5C 562.401,241.71 563.068,240.71 563.5,239.5C 564.082,235.468 565.416,231.801 567.5,228.5C 569.279,227.33 570.279,225.664 570.5,223.5C 570.5,222.167 570.5,220.833 570.5,219.5C 571.5,219.167 572.167,218.5 572.5,217.5C 574.193,212.748 575.86,208.081 577.5,203.5C 578.401,202.71 579.068,201.71 579.5,200.5C 580.503,197.15 581.503,193.817 582.5,190.5C 584.213,189.365 584.88,187.698 584.5,185.5C 585.868,181.345 587.534,177.345 589.5,173.5C 591.048,173.179 591.715,172.179 591.5,170.5C 592.038,168.883 592.371,167.216 592.5,165.5C 593.833,165.5 594.5,164.833 594.5,163.5C 594.557,162.391 594.89,161.391 595.5,160.5C 597.25,159.341 598.25,157.674 598.5,155.5C 600.336,151.342 602.002,147.008 603.5,142.5C 605.384,141.618 606.717,140.118 607.5,138C 616.155,135.178 624.822,132.678 633.5,130.5C 633.714,128.856 633.38,127.356 632.5,126C 629.274,124.536 625.941,123.369 622.5,122.5C 620.912,121.99 619.745,120.99 619,119.5C 617.092,122.332 616.259,121.999 616.5,118.5C 616.833,117.833 617.167,117.167 617.5,116.5C 619.104,115.713 619.771,114.38 619.5,112.5C 620.11,111.609 620.443,110.609 620.5,109.5C 621.906,109.027 622.573,108.027 622.5,106.5C 627.631,98.0484 632.297,89.3817 636.5,80.5C 637.906,80.0269 638.573,79.0269 638.5,77.5C 641.49,72.2338 644.49,66.9005 647.5,61.5C 648.833,61.5 649.5,60.8333 649.5,59.5C 649.5,59.1667 649.5,58.8333 649.5,58.5C 652.32,57.5353 653.653,55.5353 653.5,52.5C 654.11,50.5659 655.11,48.8993 656.5,47.5C 657.833,47.5 658.5,46.8333 658.5,45.5C 661.24,40.355 664.24,35.355 667.5,30.5C 669.156,29.8535 670.823,29.1869 672.5,28.5C 676.4,29.809 680.4,30.4757 684.5,30.5C 682.312,24.6178 683.312,19.4511 687.5,15C 694.145,12.2756 700.812,12.109 707.5,14.5 Z"/></g>
<g><path style="opacity:1" fill="#e8e0d9" d="M 658.5,45.5 C 658.5,46.8333 657.833,47.5 656.5,47.5C 656.833,46.5 657.5,45.8333 658.5,45.5 Z"/></g>
<g><path style="opacity:0.998" fill="#f9f7f5" d="M 603.5,394.5 C 602.833,394.5 602.5,394.833 602.5,395.5C 600.708,395.634 599.042,395.301 597.5,394.5C 595.928,393.313 594.261,392.313 592.5,391.5C 594.262,391.357 595.929,391.691 597.5,392.5C 612.784,351.473 624.951,309.473 634,266.5C 640.408,244.61 646.408,222.61 652,200.5C 662.679,150.779 675.012,101.446 689,52.5C 689.689,51.6433 690.522,50.9767 691.5,50.5C 692.641,52.4213 692.808,54.4213 692,56.5C 688.44,68.8549 684.773,81.1883 681,93.5C 670.739,134.691 661.072,176.024 652,217.5C 647.964,234.014 643.297,250.347 638,266.5C 633.657,286.214 628.99,305.88 624,325.5C 617.879,345.687 611.212,365.687 604,385.5C 602.935,388.573 602.768,391.573 603.5,394.5 Z"/></g>
<g><path style="opacity:0.867" fill="#fdfdfd" d="M 724.5,117.5 C 724.803,112.57 724.469,107.737 723.5,103C 722.5,102.333 721.5,102.333 720.5,103C 717.704,107.136 713.871,109.636 709,110.5C 712.687,101.451 716.687,92.4506 721,83.5C 721.742,73.0967 721.242,62.7633 719.5,52.5C 722.549,51.8989 725.549,51.3989 728.5,51C 730.037,52.1096 730.703,53.6096 730.5,55.5C 726.393,55.203 724.059,56.703 723.5,60C 724.579,60.956 725.745,61.7894 727,62.5C 727.684,63.7839 727.517,64.9505 726.5,66C 727.563,67.1882 728.897,67.6882 730.5,67.5C 731.029,71.1916 730.029,74.3583 727.5,77C 728.448,77.4828 729.448,77.6495 730.5,77.5C 729.492,81.2029 728.158,84.8696 726.5,88.5C 726.97,90.7738 727.97,92.7738 729.5,94.5C 729.069,95.2935 728.735,96.1268 728.5,97C 730.212,98.9228 731.546,101.089 732.5,103.5C 731.557,106.4 729.89,108.733 727.5,110.5C 728.724,112.839 728.724,115.172 727.5,117.5C 726.473,118.791 725.473,118.791 724.5,117.5 Z"/></g>
<g><path style="opacity:0.807" fill="#fefdfd" d="M 653.5,52.5 C 653.653,55.5353 652.32,57.5353 649.5,58.5C 645.864,58.0262 642.697,59.0262 640,61.5C 639.439,60.9781 638.772,60.6448 638,60.5C 635.146,61.114 632.313,61.7807 629.5,62.5C 628.155,61.6533 627.155,60.4866 626.5,59C 635.282,55.7207 644.282,53.554 653.5,52.5 Z"/></g>
<g><path style="opacity:0.186" fill="#f2eeea" d="M 649.5,59.5 C 649.5,60.8333 648.833,61.5 647.5,61.5C 647.5,60.1667 648.167,59.5 649.5,59.5 Z"/></g>
<g><path style="opacity:1" fill="#e0d5cb" d="M 638.5,77.5 C 638.573,79.0269 637.906,80.0269 636.5,80.5C 636.427,78.9731 637.094,77.9731 638.5,77.5 Z"/></g>
<g><path style="opacity:1" fill="#d8bda5" d="M 622.5,106.5 C 622.573,108.027 621.906,109.027 620.5,109.5C 620.427,107.973 621.094,106.973 622.5,106.5 Z"/></g>
<g><path style="opacity:0.7" fill="#f9f7f6" d="M 619.5,112.5 C 619.771,114.38 619.104,115.713 617.5,116.5C 617.66,114.847 618.326,113.514 619.5,112.5 Z"/></g>
<g><path style="opacity:0.927" fill="#fdfdfc" d="M 616.5,118.5 C 616.259,121.999 617.092,122.332 619,119.5C 619.745,120.99 620.912,121.99 622.5,122.5C 625.941,123.369 629.274,124.536 632.5,126C 633.38,127.356 633.714,128.856 633.5,130.5C 624.822,132.678 616.155,135.178 607.5,138C 606.717,140.118 605.384,141.618 603.5,142.5C 602.448,140.744 600.781,140.077 598.5,140.5C 598.34,138.801 598.506,137.134 599,135.5C 600.816,134.671 602.649,133.837 604.5,133C 605.833,132.333 605.833,131.667 604.5,131C 605.167,129.667 606.167,128.667 607.5,128C 603.486,128.499 599.486,128.333 595.5,127.5C 594.167,126.5 594.167,125.5 595.5,124.5C 597.078,123.702 598.744,123.202 600.5,123C 598.893,121.951 598.227,120.451 598.5,118.5C 604.573,117.761 610.573,117.761 616.5,118.5 Z"/></g>
<g><path style="opacity:0.725" fill="#fdfdfd" d="M 723.5,153.5 C 723.194,150.615 723.527,147.948 724.5,145.5C 724.337,147.857 724.503,150.19 725,152.5C 727.084,150.157 727.918,147.49 727.5,144.5C 729.665,144.116 731.332,144.783 732.5,146.5C 731.818,151.418 730.151,155.918 727.5,160C 726.552,160.483 725.552,160.649 724.5,160.5C 724.802,157.941 724.468,155.607 723.5,153.5 Z"/></g>
<g><path style="opacity:0.559" fill="#efe5dc" d="M 598.5,155.5 C 598.25,157.674 597.25,159.341 595.5,160.5C 595.75,158.326 596.75,156.659 598.5,155.5 Z"/></g>
<g><path style="opacity:0.421" fill="#fcfbfa" d="M 594.5,163.5 C 594.5,164.833 593.833,165.5 592.5,165.5C 592.5,164.167 593.167,163.5 594.5,163.5 Z"/></g>
<g><path style="opacity:0.604" fill="#fdfcfb" d="M 723.5,161.5 C 723.192,165.36 722.525,169.026 721.5,172.5C 721.335,169.482 721.502,166.482 722,163.5C 722.278,162.584 722.778,161.918 723.5,161.5 Z"/></g>
<g><path style="opacity:1" fill="#e2d3c5" d="M 591.5,170.5 C 591.715,172.179 591.048,173.179 589.5,173.5C 589.427,171.973 590.094,170.973 591.5,170.5 Z"/></g>
<g><path style="opacity:1" fill="#e2cbb9" d="M 584.5,185.5 C 584.88,187.698 584.213,189.365 582.5,190.5C 582.796,188.597 583.463,186.93 584.5,185.5 Z"/></g>
<g><path style="opacity:0.941" fill="#fefffd" d="M 579.5,200.5 C 579.068,201.71 578.401,202.71 577.5,203.5C 577.285,201.821 577.952,200.821 579.5,200.5 Z"/></g>
<g><path style="opacity:0.908" fill="#fdfdfd" d="M 713.5,234.5 C 713.822,232.278 713.155,230.444 711.5,229C 708.802,226.652 705.802,224.819 702.5,223.5C 702.261,221.533 702.594,219.699 703.5,218C 708.214,215.717 712.88,213.551 717.5,211.5C 718.908,210.939 720.408,210.605 722,210.5C 724.881,211.028 727.715,211.694 730.5,212.5C 730.338,214.824 729.172,216.491 727,217.5C 725.556,215.845 723.722,215.178 721.5,215.5C 721.64,217.124 720.973,218.29 719.5,219C 722.242,221.998 721.909,224.331 718.5,226C 720.819,228.154 721.819,230.987 721.5,234.5C 718.691,234.043 716.024,234.043 713.5,234.5 Z"/></g>
<g><path style="opacity:0.918" fill="#000000" d="M 942.5,213.5 C 945.5,213.5 948.5,213.5 951.5,213.5C 951.762,214.978 951.429,216.311 950.5,217.5C 941.196,220.306 933.696,225.639 928,233.5C 904.78,267.985 890.947,305.985 886.5,347.5C 887.894,366.625 894.728,368.958 907,354.5C 914.361,343.781 920.695,332.447 926,320.5C 930.943,318.224 934.609,314.558 937,309.5C 947.939,295.779 962.106,289.946 979.5,292C 983.51,293.343 987.01,295.509 990,298.5C 992.037,304.187 990.204,306.854 984.5,306.5C 984.152,301.637 981.485,298.97 976.5,298.5C 966.967,301.194 959.134,306.528 953,314.5C 943.026,325.778 936.193,338.778 932.5,353.5C 933.503,359.641 936.836,361.141 942.5,358C 947.562,353.726 952.062,348.893 956,343.5C 962.457,332.083 969.29,320.916 976.5,310C 982.216,307.958 987.883,308.125 993.5,310.5C 983.839,324.157 977.172,339.157 973.5,355.5C 973.437,357.481 974.104,359.148 975.5,360.5C 979.822,357.343 983.989,354.01 988,350.5C 990.803,351.109 991.803,352.775 991,355.5C 987.397,361.104 982.563,365.271 976.5,368C 969.333,369.506 964.166,367.006 961,360.5C 960.667,356.167 960.333,351.833 960,347.5C 954.023,357.651 945.523,364.651 934.5,368.5C 928.016,367.519 923.849,363.852 922,357.5C 921.667,352.833 921.333,348.167 921,343.5C 916.737,353.756 910.237,362.256 901.5,369C 891.554,373.536 883.054,371.702 876,363.5C 867.326,341.013 854.16,321.68 836.5,305.5C 830.871,315.93 824.871,326.097 818.5,336C 824.94,343.77 832.607,350.103 841.5,355C 843.167,358.333 842.167,359.667 838.5,359C 829.218,354.875 820.884,349.375 813.5,342.5C 803.892,353.945 792.892,363.778 780.5,372C 766.009,380.204 751.009,381.538 735.5,376C 730.114,368.107 730.28,360.274 736,352.5C 743.127,346.636 749.46,347.303 755,354.5C 756.041,359.44 755.374,364.106 753,368.5C 750.404,370.02 747.571,370.853 744.5,371C 748.167,371.667 751.833,371.667 755.5,371C 767.99,366.334 778.49,358.834 787,348.5C 791.58,342.34 795.914,336.007 800,329.5C 800.667,328.167 800.667,326.833 800,325.5C 794.242,317.396 790.742,308.396 789.5,298.5C 789.8,290.048 793.8,284.215 801.5,281C 809.252,279.849 816.752,280.682 824,283.5C 831.068,270.366 838.401,257.366 846,244.5C 851.6,235.566 859.1,228.732 868.5,224C 850.409,221.883 832.409,222.549 814.5,226C 799.079,229.437 786.913,237.604 778,250.5C 773.661,261.539 777.661,266.872 790,266.5C 803.947,265.442 815.781,259.942 825.5,250C 827.134,249.506 828.801,249.34 830.5,249.5C 830.657,250.873 830.49,252.207 830,253.5C 811.934,272.873 790.767,277.707 766.5,268C 758.89,259.073 758.723,249.906 766,240.5C 776.716,229.136 789.883,222.303 805.5,220C 829.817,215.652 854.15,215.485 878.5,219.5C 882.943,218.454 887.443,217.787 892,217.5C 896.018,217.285 899.685,218.285 903,220.5C 904.458,224.781 903.292,227.947 899.5,230C 892.289,231.663 885.455,230.496 879,226.5C 868.834,231.669 861.834,239.669 858,250.5C 852.5,265 847,279.5 841.5,294C 853.085,305.994 862.585,319.494 870,334.5C 877.022,294.463 893.688,259.13 920,228.5C 926.653,222.1 934.153,217.1 942.5,213.5 Z M 806.5,293.5 C 809.85,293.335 813.183,293.502 816.5,294C 817.308,294.308 817.975,294.808 818.5,295.5C 814.567,303.423 810.234,311.09 805.5,318.5C 801.272,311.942 800.106,304.942 802,297.5C 803.397,295.93 804.897,294.596 806.5,293.5 Z"/></g>
<g><path style="opacity:0.296" fill="#efeae5" d="M 572.5,217.5 C 572.167,218.5 571.5,219.167 570.5,219.5C 570.131,217.007 570.797,216.34 572.5,217.5 Z"/></g>
<g><path style="opacity:0.916" fill="#000000" d="M -0.5,395.5 C -0.5,390.5 -0.5,385.5 -0.5,380.5C 5.49796,370.473 12.998,369.139 22,376.5C 24.6351,382.522 23.4684,387.689 18.5,392C 21.7704,391.537 24.7704,390.204 27.5,388C 34.636,381.865 41.4693,375.365 48,368.5C 59.2949,353.874 69.7949,338.707 79.5,323C 70.8115,309.961 66.1449,295.628 65.5,280C 64.9067,272.207 66.74,265.04 71,258.5C 76.283,252.739 82.783,250.572 90.5,252C 95.1356,252.879 99.469,254.545 103.5,257C 109.316,261.982 114.983,267.149 120.5,272.5C 136.634,255.855 154.634,241.689 174.5,230C 184.361,224.035 195.028,220.535 206.5,219.5C 209.322,219.552 211.989,220.219 214.5,221.5C 215.631,223.074 215.798,224.741 215,226.5C 195.048,260.739 178.048,296.405 164,333.5C 161.899,340.711 161.232,348.045 162,355.5C 164.837,361.542 169.337,363.042 175.5,360C 185.957,348.27 194.29,335.103 200.5,320.5C 201.85,319.05 203.516,318.383 205.5,318.5C 205.662,320.527 205.495,322.527 205,324.5C 199.509,336.15 193.509,347.483 187,358.5C 174.915,374.295 161.915,375.295 148,361.5C 147,359.5 146,357.5 145,355.5C 142.009,330.842 133.342,308.509 119,288.5C 109.055,299.773 99.8879,311.606 91.5,324C 104.566,344.401 121.066,361.568 141,375.5C 141.72,377.112 141.554,378.612 140.5,380C 137.983,380.257 135.65,379.59 133.5,378C 115.373,364.873 99.5394,349.373 86,331.5C 75.6667,345.833 65.3333,360.167 55,374.5C 49.1987,381.302 43.0321,387.802 36.5,394C 27.21,401.238 16.8766,403.238 5.5,400C 3.34004,398.668 1.34004,397.168 -0.5,395.5 Z M 184.5,241.5 C 186.833,241.5 189.167,241.5 191.5,241.5C 191.628,243.655 191.128,245.655 190,247.5C 172.958,271.579 157.958,296.912 145,323.5C 140.728,308.627 134.562,294.627 126.5,281.5C 142.896,263.749 162.229,250.415 184.5,241.5 Z M 88.5,268.5 C 98.2683,269.218 106.268,273.385 112.5,281C 103.286,291.879 94.4525,303.046 86,314.5C 78.7297,301.685 77.3963,288.351 82,274.5C 83.4936,271.686 85.6603,269.686 88.5,268.5 Z"/></g>
<g><path style="opacity:0.921" fill="#000000" d="M 1531.5,286.5 C 1531.5,288.5 1531.5,290.5 1531.5,292.5C 1526.25,293.285 1520.92,293.785 1515.5,294C 1505.63,313.071 1498.3,333.071 1493.5,354C 1493.75,360.461 1496.75,362.127 1502.5,359C 1505.79,355.561 1508.96,352.061 1512,348.5C 1515.07,349.447 1516.07,351.447 1515,354.5C 1509,364.75 1500.17,368.917 1488.5,367C 1484.67,365.833 1482.17,363.333 1481,359.5C 1480.33,354.167 1480.33,348.833 1481,343.5C 1486.9,326.703 1493.07,310.036 1499.5,293.5C 1488.15,293.168 1476.81,293.501 1465.5,294.5C 1457.9,314.795 1450.4,335.128 1443,355.5C 1442.11,359.372 1442.61,363.038 1444.5,366.5C 1439.53,367.662 1434.53,367.829 1429.5,367C 1428.69,366.692 1428.03,366.192 1427.5,365.5C 1426.43,362.562 1426.26,359.562 1427,356.5C 1434.55,335.733 1442.38,315.066 1450.5,294.5C 1445.54,293.506 1440.54,293.173 1435.5,293.5C 1435.59,291.323 1436.25,289.323 1437.5,287.5C 1443.05,286.812 1448.55,286.146 1454,285.5C 1460.91,267.003 1469.91,249.67 1481,233.5C 1491.25,223.05 1503.09,220.55 1516.5,226C 1522.18,232.547 1523.84,240.047 1521.5,248.5C 1519.5,248.5 1517.5,248.5 1515.5,248.5C 1517.84,242.044 1516.51,236.544 1511.5,232C 1506.8,229.938 1502.47,230.605 1498.5,234C 1493.57,238.932 1489.4,244.432 1486,250.5C 1479.66,262.174 1474.16,274.174 1469.5,286.5C 1480.83,286.5 1492.17,286.5 1503.5,286.5C 1505.63,278.599 1508.47,270.932 1512,263.5C 1515.1,261.953 1518.43,261.286 1522,261.5C 1531.12,260.237 1532.45,262.57 1526,268.5C 1523.5,274.167 1521,279.833 1518.5,285.5C 1522.78,286.492 1527.12,286.826 1531.5,286.5 Z"/></g>
<g><path style="opacity:1" fill="#dbc5b3" d="M 570.5,223.5 C 570.279,225.664 569.279,227.33 567.5,228.5C 567.259,225.966 568.259,224.3 570.5,223.5 Z"/></g>
<g><path style="opacity:0.922" fill="#000000" d="M 1176.5,235.5 C 1181.82,235.652 1186.98,235.652 1192,235.5C 1192.67,236.833 1192.67,238.167 1192,239.5C 1173.84,271.62 1158.18,304.953 1145,339.5C 1142.52,345.832 1141.85,352.166 1143,358.5C 1145.41,360.624 1147.91,360.457 1150.5,358C 1153.89,355.214 1156.55,351.881 1158.5,348C 1160.29,347.48 1161.96,347.813 1163.5,349C 1164.45,349.718 1164.62,350.551 1164,351.5C 1160.09,358.412 1154.59,363.579 1147.5,367C 1133.7,368.875 1127.2,362.708 1128,348.5C 1123.45,356.05 1117.28,361.884 1109.5,366C 1099.7,369.681 1092.53,366.847 1088,357.5C 1087.03,333.932 1095.53,314.432 1113.5,299C 1124.83,291.347 1136.83,289.513 1149.5,293.5C 1156.69,277.445 1163.19,261.112 1169,244.5C 1170.59,240.609 1173.09,237.609 1176.5,235.5 Z M 1139.5,298.5 C 1142.16,298.162 1144.49,298.829 1146.5,300.5C 1136.96,320.434 1125.29,338.934 1111.5,356C 1105.12,361.467 1101.12,360.134 1099.5,352C 1105.24,328.304 1118.57,310.471 1139.5,298.5 Z"/></g>
<g><path style="opacity:0.926" fill="#000000" d="M 237.5,237.5 C 243.509,237.334 249.509,237.501 255.5,238C 256.591,240.064 256.758,242.231 256,244.5C 242.667,276.5 229.333,308.5 216,340.5C 213.09,346.68 212.423,353.013 214,359.5C 218.746,362.302 223.246,361.802 227.5,358C 239.541,346.621 248.374,333.121 254,317.5C 256.5,311.687 256,306.187 252.5,301C 248.954,299.826 245.287,299.16 241.5,299C 238.833,297 238.833,295 241.5,293C 253.773,291.048 261.939,295.882 266,307.5C 268.219,328.843 261.052,346.343 244.5,360C 233.099,367.956 220.766,369.956 207.5,366C 205,364.833 203.167,363 202,360.5C 200.483,354.92 200.149,349.253 201,343.5C 212.097,310.877 224.763,278.877 239,247.5C 239.691,243.979 239.191,240.645 237.5,237.5 Z"/></g>
<g><path style="opacity:0.63" fill="#f9f8f6" d="M 563.5,239.5 C 563.068,240.71 562.401,241.71 561.5,242.5C 561.285,240.821 561.952,239.821 563.5,239.5 Z"/></g>
<g><path style="opacity:0.79" fill="#fdfbf9" d="M 558.5,250.5 C 555.927,255.633 553.594,260.633 551.5,265.5C 550.226,264.811 550.226,263.977 551.5,263C 546.703,259.758 542.036,256.258 537.5,252.5C 538.693,250.616 540.359,250.116 542.5,251C 545.735,253.211 549.235,255.044 553,256.5C 555.091,254.563 556.924,252.563 558.5,250.5 Z"/></g>
<g><path style="opacity:0.449" fill="#f1e8e0" d="M 711.5,254.5 C 711.946,257.01 711.28,259.01 709.5,260.5C 710.171,259.153 710.171,257.986 709.5,257C 710.066,256.005 710.733,255.172 711.5,254.5 Z"/></g>
<g><path style="opacity:0.54" fill="#f9f7f6" d="M 551.5,266.5 C 550.974,268.23 549.974,269.564 548.5,270.5C 548.554,268.368 549.554,267.035 551.5,266.5 Z"/></g>
<g><path style="opacity:0.9" fill="#000000" d="M 1203.5,271.5 C 1210.65,269.552 1214.99,272.052 1216.5,279C 1216.39,284.279 1213.72,287.113 1208.5,287.5C 1205.61,287.373 1203.11,286.373 1201,284.5C 1200.33,281.167 1200.33,277.833 1201,274.5C 1201.7,273.309 1202.53,272.309 1203.5,271.5 Z"/></g>
<g><path style="opacity:0.354" fill="#fefffe" d="M 547.5,276.5 C 547.167,277.5 546.5,278.167 545.5,278.5C 545.5,277.167 546.167,276.5 547.5,276.5 Z"/></g>
<g><path style="opacity:0.888" fill="#fcfbfa" d="M 543.5,288.5 C 543.577,289.75 544.244,290.583 545.5,291C 554.747,292.979 564.081,294.312 573.5,295C 574.308,295.308 574.975,295.808 575.5,296.5C 564.167,297.167 552.833,297.833 541.5,298.5C 540.385,302.263 539.385,305.93 538.5,309.5C 538.586,308.504 538.252,307.671 537.5,307C 538.713,304.313 539.38,301.48 539.5,298.5C 534.804,298.097 530.137,297.43 525.5,296.5C 525.291,295.914 524.957,295.414 524.5,295C 527.003,294.871 529.003,293.871 530.5,292C 532.833,291.667 535.167,291.333 537.5,291C 536.405,289.325 534.905,288.158 533,287.5C 532.51,286.207 532.343,284.873 532.5,283.5C 535.439,283.918 537.772,285.418 539.5,288C 540.793,288.49 542.127,288.657 543.5,288.5 Z"/></g>
<g><path style="opacity:1" fill="#debfa7" d="M 544.5,283.5 C 545.443,285.001 545.109,286.335 543.5,287.5C 542.557,285.999 542.891,284.665 544.5,283.5 Z"/></g>
<g><path style="opacity:0.915" fill="#000000" d="M 314.5,291.5 C 319.844,291.334 325.177,291.501 330.5,292C 338.304,293.441 341.804,297.941 341,305.5C 339.301,306.406 337.467,306.739 335.5,306.5C 335.123,301.291 332.29,298.625 327,298.5C 317.688,301.334 310.021,306.668 304,314.5C 294.022,325.787 287.188,338.787 283.5,353.5C 284.495,359.641 287.828,361.141 293.5,358C 305.475,346.917 314.642,333.75 321,318.5C 323.045,315.577 325.212,312.743 327.5,310C 332.888,308.53 338.221,308.03 343.5,308.5C 344.583,309.365 344.749,310.365 344,311.5C 334.505,324.826 328.005,339.492 324.5,355.5C 324.437,357.481 325.104,359.148 326.5,360.5C 331.126,357.542 335.126,353.876 338.5,349.5C 340.307,350.395 341.64,351.728 342.5,353.5C 338.881,361.617 332.714,366.617 324,368.5C 319.205,368.553 315.539,366.553 313,362.5C 311.839,357.584 311.173,352.584 311,347.5C 305.786,355.715 298.952,362.215 290.5,367C 281.536,369.437 275.702,366.27 273,357.5C 271.387,334.221 279.553,315.054 297.5,300C 302.98,296.593 308.647,293.76 314.5,291.5 Z"/></g>
<g><path style="opacity:0.915" fill="#000000" d="M 456.5,291.5 C 462.176,291.334 467.843,291.501 473.5,292C 479.597,293.751 483.097,297.584 484,303.5C 483.051,306.2 481.217,307.033 478.5,306C 475.52,299.115 470.52,297.115 463.5,300C 446.174,311.795 434.007,327.628 427,347.5C 424.991,360.167 429.158,362.667 439.5,355C 450.286,341.94 459.453,327.773 467,312.5C 469.693,309.143 473.193,307.809 477.5,308.5C 480.343,308.974 483.009,308.974 485.5,308.5C 485.833,309 486.167,309.5 486.5,310C 476.973,323.89 470.306,339.057 466.5,355.5C 466.776,357.33 467.443,358.997 468.5,360.5C 473.112,357.392 477.278,353.725 481,349.5C 483.628,350.756 484.628,352.756 484,355.5C 480.306,361.531 475.139,365.697 468.5,368C 462.991,368.718 458.491,366.884 455,362.5C 453.839,357.584 453.173,352.584 453,347.5C 447.786,355.715 440.952,362.215 432.5,367C 423.019,369.511 417.185,366.011 415,356.5C 413.598,334.132 421.432,315.632 438.5,301C 444.15,297.01 450.15,293.843 456.5,291.5 Z"/></g>
<g><path style="opacity:0.914" fill="#000000" d="M 1387.5,291.5 C 1392.51,291.334 1397.51,291.501 1402.5,292C 1406.86,293.372 1410.36,295.872 1413,299.5C 1414.9,304.913 1413.07,307.247 1407.5,306.5C 1405.35,299.263 1400.69,297.096 1393.5,300C 1373.83,313.015 1361.16,331.015 1355.5,354C 1356.82,359.694 1360.15,361.028 1365.5,358C 1369.55,355.07 1373.05,351.57 1376,347.5C 1383.25,335.999 1390.25,324.332 1397,312.5C 1398.21,310.951 1399.71,309.785 1401.5,309C 1406.66,308.09 1411.66,308.59 1416.5,310.5C 1406.83,324.172 1400.16,339.172 1396.5,355.5C 1396.67,356.833 1396.83,358.167 1397,359.5C 1397.41,359.957 1397.91,360.291 1398.5,360.5C 1402.82,357.343 1406.99,354.01 1411,350.5C 1412.83,351 1414,352.167 1414.5,354C 1410.61,362.059 1404.28,366.892 1395.5,368.5C 1389.81,368.41 1385.97,365.743 1384,360.5C 1382.65,356.145 1382.32,351.812 1383,347.5C 1378.91,353.593 1374.08,359.093 1368.5,364C 1353.19,371.914 1344.85,367.081 1343.5,349.5C 1345.62,330.09 1353.95,313.923 1368.5,301C 1374.38,296.727 1380.71,293.561 1387.5,291.5 Z"/></g>
<g><path style="opacity:0.906" fill="#000000" d="M 389.5,292.5 C 395.593,292.139 401.593,292.639 407.5,294C 409.378,295.543 410.878,297.376 412,299.5C 414.681,310.138 411.014,317.472 401,321.5C 398.964,321.046 397.13,320.213 395.5,319C 400.933,313.975 403.433,307.808 403,300.5C 400.123,299.17 397.289,299.336 394.5,301C 381.926,311.567 373.426,324.734 369,340.5C 368.333,345.5 368.333,350.5 369,355.5C 370.592,359.887 373.758,362.22 378.5,362.5C 388.134,360.714 395.467,355.547 400.5,347C 403.125,346.277 404.792,347.277 405.5,350C 395.088,367.542 380.421,372.542 361.5,365C 356.031,360.107 353.364,353.94 353.5,346.5C 355.189,325.277 364.522,308.443 381.5,296C 384.309,294.907 386.976,293.74 389.5,292.5 Z"/></g>
<g><path style="opacity:0.904" fill="#000000" d="M 1252.5,292.5 C 1257.51,292.334 1262.51,292.501 1267.5,293C 1274.74,296.655 1277.24,302.488 1275,310.5C 1273.27,316.401 1269.43,320.068 1263.5,321.5C 1261.34,321.255 1259.67,320.255 1258.5,318.5C 1263.75,313.996 1266.25,308.329 1266,301.5C 1264.19,299.604 1262.03,299.104 1259.5,300C 1243.32,312.178 1233.65,328.345 1230.5,348.5C 1230.39,358.898 1235.39,363.398 1245.5,362C 1253.01,358.824 1259.01,353.824 1263.5,347C 1265.64,346.736 1267.31,347.569 1268.5,349.5C 1258.01,367.708 1243.01,372.874 1223.5,365C 1218.12,359.85 1215.79,353.517 1216.5,346C 1217.82,325.692 1226.49,309.359 1242.5,297C 1245.89,295.38 1249.23,293.88 1252.5,292.5 Z"/></g>
<g><path style="opacity:0.913" fill="#000000" d="M 1033.5,293.5 C 1038.17,293.5 1042.83,293.5 1047.5,293.5C 1047.65,294.552 1047.48,295.552 1047,296.5C 1039.56,304.714 1034.23,314.047 1031,324.5C 1042.28,312.893 1055.45,304.06 1070.5,298C 1073.54,296.945 1076.54,296.778 1079.5,297.5C 1079.83,297.833 1080.17,298.167 1080.5,298.5C 1073.41,311.677 1066.58,325.01 1060,338.5C 1057.46,344.295 1055.62,350.295 1054.5,356.5C 1054.87,358.84 1056.03,360.507 1058,361.5C 1064.1,359.072 1068.6,354.905 1071.5,349C 1074.05,348.442 1076.05,349.275 1077.5,351.5C 1073.55,359.28 1067.55,364.78 1059.5,368C 1051.11,370.542 1044.94,368.042 1041,360.5C 1040.21,354.763 1040.54,349.097 1042,343.5C 1045.55,334.726 1049.89,326.393 1055,318.5C 1055.49,317.207 1055.66,315.873 1055.5,314.5C 1047.28,318.216 1040.11,323.549 1034,330.5C 1025.24,341.281 1018.08,353.115 1012.5,366C 1007.92,367.483 1003.25,368.65 998.5,369.5C 997.488,367.163 997.655,364.83 999,362.5C 1007.94,339.963 1017.94,317.963 1029,296.5C 1030.65,295.601 1032.15,294.601 1033.5,293.5 Z"/></g>
<g><path style="opacity:0.91" fill="#000000" d="M 1307.5,294.5 C 1312.51,294.751 1317.51,295.084 1322.5,295.5C 1319.57,299.288 1316.74,303.288 1314,307.5C 1311.38,312.046 1309.38,316.713 1308,321.5C 1315.21,311.29 1324.04,302.79 1334.5,296C 1346.45,294.283 1351.28,299.449 1349,311.5C 1346.46,316.218 1342.62,319.218 1337.5,320.5C 1335.54,320.125 1333.71,319.459 1332,318.5C 1331.83,315.843 1331.99,313.176 1332.5,310.5C 1330.35,310.372 1328.35,310.872 1326.5,312C 1309.05,327.24 1296.05,345.574 1287.5,367C 1282.88,368.327 1278.21,368.993 1273.5,369C 1273.04,368.586 1272.71,368.086 1272.5,367.5C 1281.85,344.959 1291.68,322.626 1302,300.5C 1303.36,297.977 1305.19,295.977 1307.5,294.5 Z"/></g>
<g><path style="opacity:0.882" fill="#f5f3f1" d="M 704.5,294.5 C 704.737,295.791 704.404,296.791 703.5,297.5C 702.185,296.105 702.519,295.105 704.5,294.5 Z"/></g>
<g><path style="opacity:0.926" fill="#000000" d="M 1192.5,295.5 C 1198.18,295.334 1203.84,295.501 1209.5,296C 1211.46,298.121 1211.96,300.621 1211,303.5C 1204,319.833 1197,336.167 1190,352.5C 1187.57,357.541 1188.07,362.208 1191.5,366.5C 1186.2,367.663 1180.86,367.829 1175.5,367C 1172.81,364.347 1171.97,361.18 1173,357.5C 1179.02,339.778 1186.02,322.445 1194,305.5C 1194.43,302.032 1193.93,298.698 1192.5,295.5 Z"/></g>
<g><path style="opacity:1" fill="#d6bca5" d="M 702.5,307.5 C 702.573,309.027 701.906,310.027 700.5,310.5C 700.427,308.973 701.094,307.973 702.5,307.5 Z"/></g>
<g><path style="opacity:0.479" fill="#f3efec" d="M 538.5,309.5 C 538.676,314.237 538.676,318.903 538.5,323.5C 537.167,318.833 537.167,314.167 538.5,309.5 Z"/></g>
<g><path style="opacity:0.267" fill="#f6f5f4" d="M 538.5,324.5 C 539.461,326.265 539.795,328.265 539.5,330.5C 537.87,328.642 537.537,326.642 538.5,324.5 Z"/></g>
<g><path style="opacity:1" fill="#edc5a6" d="M 696.5,328.5 C 696.771,330.38 696.104,331.713 694.5,332.5C 694.229,330.62 694.896,329.287 696.5,328.5 Z"/></g>
<g><path style="opacity:0.848" fill="#fdfdfc" d="M 691.5,341.5 C 691.351,342.552 691.517,343.552 692,344.5C 694.027,346.772 696.194,348.939 698.5,351C 705.962,354.967 713.295,359.133 720.5,363.5C 722.99,365.412 724.99,367.745 726.5,370.5C 725.616,372.942 723.949,373.775 721.5,373C 714.226,368.429 706.893,363.929 699.5,359.5C 695.886,356.236 692.052,353.236 688,350.5C 687.617,351.056 687.117,351.389 686.5,351.5C 686.414,350.504 686.748,349.671 687.5,349C 681.785,346.15 676.451,342.816 671.5,339C 666.878,339.198 664.878,337.032 665.5,332.5C 668.547,331.855 670.713,332.855 672,335.5C 672.333,335.167 672.667,334.833 673,334.5C 678.688,337.168 684.354,339.835 690,342.5C 690.383,341.944 690.883,341.611 691.5,341.5 Z"/></g>
<g><path style="opacity:0.794" fill="#f9f7f6" d="M 539.5,331.5 C 540.434,332.568 540.768,333.901 540.5,335.5C 539.751,334.469 539.085,333.302 538.5,332C 538.728,331.601 539.062,331.435 539.5,331.5 Z"/></g>
<g><path style="opacity:0.931" fill="#fbfbfa" d="M 540.5,335.5 C 541.249,336.531 541.915,337.698 542.5,339C 551.622,339.833 560.622,340.833 569.5,342C 561.894,345.848 554.227,349.015 546.5,351.5C 543.284,351.016 539.951,351.016 536.5,351.5C 536.5,350.167 536.5,348.833 536.5,347.5C 538.854,347.162 541.187,346.662 543.5,346C 540.999,343.25 537.999,341.25 534.5,340C 536.25,338.681 538.25,338.181 540.5,338.5C 540.5,337.5 540.5,336.5 540.5,335.5 Z"/></g>
<g><path style="opacity:1" fill="#e9e4e0" d="M 546.5,351.5 C 548.048,351.821 548.715,352.821 548.5,354.5C 547.599,353.71 546.932,352.71 546.5,351.5 Z"/></g>
<g><path style="opacity:1" fill="#e0d1c5" d="M 548.5,355.5 C 549.906,355.973 550.573,356.973 550.5,358.5C 549.094,358.027 548.427,357.027 548.5,355.5 Z"/></g>
<g><path style="opacity:0.945" fill="#fefefe" d="M 550.5,358.5 C 553.697,360.966 557.031,363.299 560.5,365.5C 561.736,366.246 563.07,366.579 564.5,366.5C 567.8,370.649 570.967,374.982 574,379.5C 578.283,381.619 581.783,384.619 584.5,388.5C 589.802,399.412 586.468,404.579 574.5,404C 571.473,400.973 568.473,397.973 565.5,395C 559.415,394.036 553.415,392.702 547.5,391C 542.888,386.761 542.221,381.927 545.5,376.5C 533.592,379.292 529.426,374.959 533,363.5C 533.903,362.299 535.069,361.465 536.5,361C 540.699,359.965 544.866,359.798 549,360.5C 550.03,360.164 550.53,359.497 550.5,358.5 Z"/></g>
<g><path style="opacity:0.114" fill="#fcfbfb" d="M 679.5,363.5 C 679.167,364.5 678.5,365.167 677.5,365.5C 677.5,364.167 678.167,363.5 679.5,363.5 Z"/></g>
<g><path style="opacity:0.486" fill="#f7f5f3" d="M 674.5,369.5 C 674.5,370.833 673.833,371.5 672.5,371.5C 672.5,370.167 673.167,369.5 674.5,369.5 Z"/></g>
<g><path style="opacity:0.343" fill="#faf9f9" d="M 671.5,372.5 C 671.5,373.833 670.833,374.5 669.5,374.5C 669.833,373.5 670.5,372.833 671.5,372.5 Z"/></g>
<g><path style="opacity:0.178" fill="#fbfbfa" d="M 666.5,377.5 C 666.5,378.833 665.833,379.5 664.5,379.5C 664.833,378.5 665.5,377.833 666.5,377.5 Z"/></g>
<g><path style="opacity:0.955" fill="#fefefe" d="M 664.5,379.5 C 664.586,380.496 664.252,381.329 663.5,382C 669.491,382.499 675.491,382.666 681.5,382.5C 682.167,384.5 682.833,386.5 683.5,388.5C 677.132,388.17 670.798,388.504 664.5,389.5C 665.771,391.585 666.771,393.752 667.5,396C 666.452,398.762 665.119,401.429 663.5,404C 659.198,404.286 655.865,406.286 653.5,410C 647.333,410.429 641.333,409.595 635.5,407.5C 633.041,409.806 630.041,410.973 626.5,411C 629.219,418.115 626.886,422.615 619.5,424.5C 617.929,423.691 616.262,423.357 614.5,423.5C 614.5,422.5 614.5,421.5 614.5,420.5C 607.188,419.739 603.188,415.572 602.5,408C 602.615,406.105 603.282,404.438 604.5,403C 603.556,400.281 603.223,397.448 603.5,394.5C 604.583,394.461 605.583,394.127 606.5,393.5C 609.709,389.127 613.709,385.627 618.5,383C 632.832,383.638 647.166,383.305 661.5,382C 662.373,380.955 663.373,380.122 664.5,379.5 Z"/></g>
<g><path style="opacity:1" fill="#f29a4d" d="M 597.5,394.5 C 599.042,395.301 600.708,395.634 602.5,395.5C 602.573,397.027 601.906,398.027 600.5,398.5C 598.72,399.99 598.054,401.99 598.5,404.5C 598.5,405.5 598.5,406.5 598.5,407.5C 596.707,409.426 595.707,411.759 595.5,414.5C 595.171,419.324 594.171,423.657 592.5,427.5C 591.463,428.93 590.796,430.597 590.5,432.5C 581.061,454.639 569.395,475.639 555.5,495.5C 555.167,495.5 554.833,495.5 554.5,495.5C 553.282,494.839 551.949,494.172 550.5,493.5C 564.676,474.145 576.509,453.478 586,431.5C 588.001,425.483 590.001,419.483 592,413.5C 592.144,406.582 593.977,400.249 597.5,394.5 Z"/></g>
<g><path style="opacity:0.204" fill="#fefdfc" d="M 600.5,398.5 C 600.405,400.786 599.738,402.786 598.5,404.5C 598.054,401.99 598.72,399.99 600.5,398.5 Z"/></g>
<g><path style="opacity:0.329" fill="#f2e3d6" d="M 598.5,407.5 C 598.448,410.346 597.448,412.68 595.5,414.5C 595.707,411.759 596.707,409.426 598.5,407.5 Z"/></g>
<g><path style="opacity:0.213" fill="#faf3ed" d="M 592.5,427.5 C 592.923,429.781 592.256,431.448 590.5,432.5C 590.796,430.597 591.463,428.93 592.5,427.5 Z"/></g>
</svg>
